<?xml version="1.0" encoding="UTF-8"?>
<svg version="1.1" xmlns="http://www.w3.org/2000/svg" width="500" height="500">
<path d="M0 0 C1.49055908 0.30599121 1.49055908 0.30599121 3.01123047 0.61816406 C46.47743687 9.810494 88.0966617 28.7362867 120.515625 59.6328125 C122.60037017 61.61922063 124.72421785 63.4741954 126.9375 65.3125 C171.23149062 104.02398354 198.36004 166.17629815 203 224 C203.14594214 227.33769614 203.18602443 230.67110014 203.203125 234.01171875 C203.21018463 234.93441055 203.21724426 235.85710236 203.22451782 236.80775452 C203.45319193 275.4603802 203.45319193 275.4603802 200 292 C199.69400879 293.48838379 199.69400879 293.48838379 199.38183594 295.00683594 C194.73049614 317.00422021 187.83802832 337.78648385 178 358 C177.64180176 358.73702148 177.28360352 359.47404297 176.91455078 360.23339844 C167.14696928 380.05465994 154.33282062 398.36331479 139.28515625 414.52734375 C137.37096117 416.59860099 135.55412389 418.70914701 133.75 420.875 C123.60535111 432.4587735 111.43073481 442.01044201 99 451 C98.38576172 451.4444043 97.77152344 451.88880859 97.13867188 452.34667969 C68.22905163 472.9896083 34.78110505 486.34258144 0 493 C-1.2365332 493.2477417 -1.2365332 493.2477417 -2.49804688 493.50048828 C-29.99835873 498.78943052 -62.58267711 498.68933536 -90 493 C-91.49055908 492.69400879 -91.49055908 492.69400879 -93.01123047 492.38183594 C-136.47743687 483.189506 -178.0966617 464.2637133 -210.515625 433.3671875 C-212.60037017 431.38077937 -214.72421785 429.5258046 -216.9375 427.6875 C-261.23149062 388.97601646 -288.36004 326.82370185 -293 269 C-293.14594214 265.66230386 -293.18602443 262.32889986 -293.203125 258.98828125 C-293.21018463 258.06558945 -293.21724426 257.14289764 -293.22451782 256.19224548 C-293.45319193 217.5396198 -293.45319193 217.5396198 -290 201 C-289.79600586 200.00774414 -289.59201172 199.01548828 -289.38183594 197.99316406 C-284.73049614 175.99577979 -277.83802832 155.21351615 -268 135 C-267.64180176 134.26297852 -267.28360352 133.52595703 -266.91455078 132.76660156 C-257.14696928 112.94534006 -244.33282062 94.63668521 -229.28515625 78.47265625 C-227.37096117 76.40139901 -225.55412389 74.29085299 -223.75 72.125 C-213.60535111 60.5412265 -201.43073481 50.98955799 -189 42 C-188.38576172 41.5555957 -187.77152344 41.11119141 -187.13867188 40.65332031 C-158.22905163 20.0103917 -124.78110505 6.65741856 -90 0 C-89.17564453 -0.16516113 -88.35128906 -0.33032227 -87.50195312 -0.50048828 C-60.00164127 -5.78943052 -27.41732289 -5.68933536 0 0 Z " fill="#FEFEFE" transform="translate(293,3)"/>
<path d="M0 0 C6.27 0 12.54 0 19 0 C18.30400774 4.8719458 17.5895578 8.7616027 16.15234375 13.3515625 C15.79462891 14.53363281 15.43691406 15.71570313 15.06835938 16.93359375 C14.32067556 19.37421968 13.56301948 21.81181519 12.79492188 24.24609375 C10.10641845 33.22073627 8.18514467 42.35378343 11.125 51.5 C16.35062934 58.46750578 22.09153501 60.35134028 30.24609375 62.6015625 C31.35383652 62.92027313 32.46157928 63.23898376 33.60289001 63.56735229 C37.21039631 64.60136102 40.82357393 65.61367989 44.4375 66.625 C46.92497251 67.33151943 49.41211287 68.03920927 51.89892578 68.74804688 C56.89415387 70.16958198 61.89171628 71.58245877 66.89111328 72.98925781 C73.27016137 74.78763785 79.63484941 76.63199848 85.99609375 78.4921875 C88.63280382 79.25756365 91.26998144 80.02129367 93.90750122 80.78387451 C95.53651206 81.25665131 97.16453075 81.73286187 98.79147339 82.21270752 C112.57986159 86.86382199 112.57986159 86.86382199 126.3125 84.3125 C137.20060084 78.05992724 138.85461021 63.31124086 141.98193359 52.0859375 C142.2289502 51.20035156 142.4759668 50.31476563 142.73046875 49.40234375 C142.95114014 48.60304443 143.17181152 47.80374512 143.39916992 46.98022461 C144 45 144 45 145 43 C143.79730469 43.37511719 142.59460938 43.75023437 141.35546875 44.13671875 C108.98531592 53.96170082 75.71184059 57.99185907 42 55 C42 54.67 42 54.34 42 54 C43.35472412 53.94839722 43.35472412 53.94839722 44.73681641 53.89575195 C93.96180951 51.89005893 142.0796185 42.57577785 183.875 15 C184.48931885 14.59475098 185.1036377 14.18950195 185.73657227 13.77197266 C188.72228479 11.74292566 191.44204722 9.6550427 194.04296875 7.1484375 C201.14875468 0.50008582 206.15136354 -0.80212725 215.8125 -0.625 C219.21732738 -0.49587316 222.6057741 -0.29705761 226 0 C210.9650091 15.72089377 187.83652602 26.8387667 168 35 C167.34 35 166.68 35 166 35 C165.79826172 35.919021 165.59652344 36.83804199 165.38867188 37.78491211 C162.56496002 50.34261303 159.07893247 62.6964278 155.50927734 75.05981445 C154.4935286 78.58495893 153.49069527 82.11362179 152.48828125 85.64257812 C151.83671751 87.90907855 151.18440076 90.17536266 150.53125 92.44140625 C150.23633667 93.48422256 149.94142334 94.52703888 149.63757324 95.60145569 C146.80984825 105.30898958 143.67457528 113.20673241 135 119 C127.60302453 122.58410152 120.68801466 122.72346434 112.78833008 120.49389648 C111.59348999 120.16137878 110.3986499 119.82886108 109.16760254 119.48626709 C107.86819265 119.11472724 106.5688372 118.74299694 105.26953125 118.37109375 C103.89608828 117.98517822 102.52242543 117.60004451 101.14855957 117.21563721 C97.46332409 116.18185196 93.78144455 115.13658369 90.10031509 114.08828354 C86.27356661 112.99974062 82.44458128 111.91911561 78.6159668 110.8371582 C73.17566843 109.298613 67.7367268 107.7553897 62.29905415 106.20759106 C54.53587064 103.99817143 46.7663925 101.81310246 38.98994446 99.65086365 C34.20723584 98.31898913 29.42829323 96.97398108 24.65023804 95.6255188 C22.44273199 95.00513393 20.23377886 94.38987309 18.02334595 93.77999878 C14.96552642 92.93475665 11.9140384 92.06955276 8.86328125 91.19921875 C7.98812866 90.96237366 7.11297607 90.72552856 6.21130371 90.48150635 C-2.56119762 87.93292755 -9.53974434 83.90399174 -14.125 75.83203125 C-18.99090894 65.64403441 -15.54855559 53.39512804 -12.5 43.1640625 C-12.14486328 41.9186972 -11.78972656 40.67333191 -11.42382812 39.39022827 C-10.49309451 36.12718173 -9.54063797 32.87090002 -8.58300781 29.61566162 C-7.60424944 26.2737223 -6.64686764 22.92567155 -5.6875 19.578125 C-3.81216292 13.04603329 -1.91177565 6.52151928 0 0 Z " fill="#DA0715" transform="translate(148,290)"/>
<path d="M0 0 C1.37294717 0.38939842 2.74632747 0.7772724 4.12010193 1.16374207 C7.77442995 2.19631918 11.42250205 3.24947862 15.06951523 4.30755997 C18.86526199 5.40560518 22.66588457 6.48650953 26.46606445 7.5690918 C31.0731483 8.88289893 35.67949232 10.19914391 40.28315735 11.52488708 C49.7192402 14.24186734 59.16909836 16.898514 68.63671875 19.50390625 C71.97060307 20.42845783 75.30398562 21.35478835 78.63708496 22.28216553 C80.70302309 22.85421008 82.7703104 23.42140689 84.83898926 23.98345947 C87.68744146 24.75913578 90.52957932 25.55481021 93.37109375 26.35546875 C94.18057968 26.57043503 94.99006561 26.78540131 95.82408142 27.00688171 C102.76215385 28.99907945 109.10917276 32.32131104 113.734375 37.96875 C114.1778125 38.79117188 114.62125 39.61359375 115.078125 40.4609375 C115.5421875 41.28851563 116.00625 42.11609375 116.484375 42.96875 C120.64691027 51.97766562 117.79504373 60.22400765 115.265625 69.3359375 C114.9141347 70.62565619 114.56323828 71.91553685 114.21289062 73.20556641 C113.01788152 77.58700218 111.80024577 81.96199636 110.578125 86.3359375 C110.34192444 87.18136108 110.10572388 88.02678467 109.86236572 88.89782715 C106.46332972 101.05212516 103.02851969 113.1961297 99.578125 125.3359375 C93.308125 125.3359375 87.038125 125.3359375 80.578125 125.3359375 C81.90714995 118.24740388 83.60341132 111.38680621 85.6171875 104.46484375 C86.2037552 102.40577838 86.78967296 100.34652777 87.375 98.28710938 C88.28799577 95.08843359 89.2052246 91.89121503 90.13378906 88.69702148 C91.03726405 85.5815657 91.9222671 82.46131863 92.8046875 79.33984375 C93.22181503 77.92995934 93.22181503 77.92995934 93.64736938 76.49159241 C95.83058382 68.6824623 97.48186715 60.3731618 93.578125 52.8984375 C89.58121177 46.47284435 80.51336254 44.49890966 73.65527344 42.6027832 C72.80221619 42.35996613 71.94915894 42.11714905 71.07025146 41.86697388 C68.27809762 41.07425233 65.48290416 40.29289335 62.6875 39.51171875 C60.73534164 38.96000772 58.78337915 38.40760315 56.831604 37.85453796 C51.7125622 36.40606285 46.59083627 34.96731267 41.46850586 33.53051758 C36.25069926 32.06492361 31.03567286 30.58950446 25.8203125 29.11523438 C18.20936129 26.96564132 10.59762021 24.81889032 2.98339844 22.6809082 C2.18748291 22.4570192 1.39156738 22.23313019 0.5715332 22.00245667 C-8.27822496 19.5206603 -14.82481848 17.71899974 -23.421875 22.3359375 C-30.72507658 28.31128424 -32.35541262 37.12051357 -34.77734375 45.8515625 C-35.08384354 46.94434509 -35.39034332 48.03712769 -35.70613098 49.1630249 C-36.34963979 51.46187079 -36.99076508 53.76138507 -37.62963867 56.06152344 C-38.61043959 59.58976715 -39.60057425 63.11529673 -40.59179688 66.640625 C-41.21670229 68.87744878 -41.84107012 71.11442284 -42.46484375 73.3515625 C-42.7616655 74.40780823 -43.05848724 75.46405396 -43.36430359 76.55230713 C-43.63491104 77.53052429 -43.90551849 78.50874146 -44.18432617 79.51660156 C-44.42398605 80.37707092 -44.66364594 81.23754028 -44.91056824 82.12408447 C-45.53448858 84.4447269 -45.53448858 84.4447269 -45.421875 87.3359375 C-44.83623779 87.12501465 -44.25060059 86.9140918 -43.6472168 86.69677734 C-27.47412573 80.93529927 -11.29404475 76.5202916 5.578125 73.3359375 C6.51350098 73.15659668 7.44887695 72.97725586 8.41259766 72.79248047 C27.28987754 69.33559361 46.46999093 70.03585808 65.578125 70.3359375 C65.578125 70.6659375 65.578125 70.9959375 65.578125 71.3359375 C64.10110107 71.43297974 64.10110107 71.43297974 62.59423828 71.53198242 C19.78026184 74.40486258 -20.67188244 81.91642462 -58.421875 103.3359375 C-59.11039551 103.72426758 -59.79891602 104.11259766 -60.50830078 104.51269531 C-69.92613131 109.86752879 -80.04947354 115.66780752 -87.55078125 123.58203125 C-92.07271644 126.34441071 -96.55308245 125.75831575 -101.734375 125.5859375 C-102.76111328 125.56789062 -103.78785156 125.54984375 -104.84570312 125.53125 C-107.37205385 125.48424813 -109.89647969 125.41856022 -112.421875 125.3359375 C-108.75687245 121.43537713 -104.95972495 118.44272657 -100.484375 115.5234375 C-99.83194824 115.09329346 -99.17952148 114.66314941 -98.50732422 114.2199707 C-91.37661269 109.57066433 -83.94193635 104.73552957 -76.12988281 101.33959961 C-71.66755612 99.25847996 -69.06526733 97.66833416 -67.328125 92.94140625 C-66.82386953 91.1450067 -66.35746976 89.33770929 -65.921875 87.5234375 C-65.6525415 86.5329541 -65.38320801 85.5424707 -65.10571289 84.52197266 C-64.51121287 82.33037083 -63.93127968 80.13478049 -63.36376953 77.93603516 C-62.35741916 74.08957518 -61.28867608 70.26494289 -60.19921875 66.44140625 C-59.81075964 65.07626218 -59.42233211 63.71110913 -59.03393555 62.34594727 C-58.84004242 61.66460724 -58.64614929 60.98326721 -58.44638062 60.28128052 C-57.47545735 56.85687681 -56.5189161 53.42847854 -55.5625 50 C-52.89151798 40.43289522 -50.21909591 30.86704327 -47.421875 21.3359375 C-47.06609375 20.11648437 -46.7103125 18.89703125 -46.34375 17.640625 C-43.56224338 8.6559171 -40.50277857 3.10720769 -32.2890625 -1.71875 C-22.26120438 -6.79561541 -10.09757295 -2.96306468 0 0 Z " fill="#1D33FF" transform="translate(246.421875,86.6640625)"/>
<path d="M0 0 C9.9 0 19.8 0 30 0 C29 10 29 10 28.4375 13.75 C25.17756941 40.63106701 33.31370646 68.93751568 49.875 90.25 C51.23600189 91.84538187 52.61171182 93.42830494 54 95 C55.16208984 96.39412109 55.16208984 96.39412109 56.34765625 97.81640625 C73.77524712 117.97773687 97.55113078 130.37446094 122 140 C122 140.33 122 140.66 122 141 C98.32759643 139.787103 75.32300576 134.46544831 54 124 C53.36368652 123.69336426 52.72737305 123.38672852 52.07177734 123.07080078 C27.28664166 111.00657501 8.0686189 91.90827546 -2 66 C-4.54775561 58.45472377 -6.68779631 50.97992623 -7 43 C-7.06316406 41.87722656 -7.12632813 40.75445312 -7.19140625 39.59765625 C-7.43785289 31.63981463 -6.74136312 24.25152073 -5.1875 16.4375 C-5.0222583 15.60500732 -4.8570166 14.77251465 -4.68676758 13.91479492 C-3.58970205 8.80014637 -2.13698769 4.98630462 0 0 Z " fill="#D90614" transform="translate(76,290)"/>
<path d="M0 0 C5.59223901 -0.11925089 10.80520107 0.23623928 16.3125 1.1875 C17.47048096 1.38605591 17.47048096 1.38605591 18.65185547 1.58862305 C45.06942716 6.33057983 71.23107778 15.53727379 92 33 C92.94230469 33.77988281 93.88460937 34.55976562 94.85546875 35.36328125 C111.43728378 49.70369232 122.25098497 69.42559323 126 91 C127.06623392 108.36668884 125.50610366 123.48168902 120 140 C109.77 140 99.54 140 89 140 C89.66 137.03 90.32 134.06 91 131 C91.52909775 127.34123911 91.78798659 123.69004286 92 120 C92.05414063 119.10925781 92.10828125 118.21851563 92.1640625 117.30078125 C93.05171944 88.3712345 81.16105094 61.46171371 61.78125 40.47265625 C44.61737417 22.40928842 23.10561669 10.0072743 0 1 C0 0.67 0 0.34 0 0 Z " fill="#1B31FF" transform="translate(312,72)"/>
<path d="M0 0 C6.26985447 2.16700039 10.36261321 5.89776512 14.04296875 11.37890625 C16.19741574 17.84224721 15.84819653 25.31013177 13.0625 31.54296875 C8.26672557 40.17903765 0.91122078 43.88678008 -8.20703125 47.1953125 C-15.24170718 49.10053723 -22.73573334 48.55016233 -29.95703125 48.37890625 C-29.68205811 47.81365234 -29.40708496 47.24839844 -29.1237793 46.66601562 C-25.88587005 39.4246758 -25.16284166 32.74511446 -24.76953125 24.87890625 C-24.63355025 22.55579156 -24.49439542 20.23285973 -24.3515625 17.91015625 C-24.27192261 16.38745117 -24.27192261 16.38745117 -24.19067383 14.83398438 C-23.95703125 12.37890625 -23.95703125 12.37890625 -22.95703125 10.37890625 C-25.59703125 10.70890625 -28.23703125 11.03890625 -30.95703125 11.37890625 C-30.95703125 9.37890625 -30.95703125 9.37890625 -29.3828125 7.7578125 C-28.68542969 7.15839844 -27.98804688 6.55898437 -27.26953125 5.94140625 C-26.58503906 5.34457031 -25.90054687 4.74773437 -25.1953125 4.1328125 C-17.50880845 -1.89029451 -9.38011171 -1.97019519 0 0 Z " fill="#2A25CC" transform="translate(342.95703125,228.62109375)"/>
<path d="M0 0 C3.24648885 2.73388535 4.77460182 4.72434533 5.203125 9.05078125 C5.30878583 14.14891633 4.96124966 17.65683383 2 22 C-3.05983323 27.05983323 -8.71284399 30.15805695 -16 30.1875 C-16.99 30.125625 -17.98 30.06375 -19 30 C-19.33 33.96 -19.66 37.92 -20 42 C-28.5 46 -28.5 46 -33 46 C-32.47728784 33.59246407 -31.5168156 21.32596752 -30 9 C-31.65 9.33 -33.3 9.66 -35 10 C-34.34 6.7 -33.68 3.4 -33 0 C-22.93068931 -3.68389416 -9.60658099 -5.72306952 0 0 Z " fill="#2726D3" transform="translate(269,231)"/>
<path d="M0 0 C4.62 8.25 9.24 16.5 14 25 C14.2099559 17.85025924 14.2099559 17.85025924 14.38793945 10.69970703 C14.42105225 9.81138184 14.45416504 8.92305664 14.48828125 8.0078125 C14.51446533 7.09660645 14.54064941 6.18540039 14.56762695 5.24658203 C14.71031006 4.50520996 14.85299316 3.76383789 15 3 C17.90092502 1.06604999 18.89674737 0.69868059 22.1875 0.375 C23.445625 0.25125 24.70375 0.1275 26 0 C26.07967765 6.01509065 26.10036566 12.02646347 26.06713867 18.04199219 C26.06406233 20.08662769 26.07691559 22.13135318 26.10620117 24.17578125 C26.14560129 27.12147724 26.12711999 30.06209745 26.09765625 33.0078125 C26.12223404 33.9174173 26.14681183 34.82702209 26.1721344 35.76419067 C26.111485 38.46235483 25.96551211 40.47484674 25 43 C22.26904929 45.56807358 19.34566743 47.33387111 16 49 C11.86212343 45.33502361 9.17520758 40.87965924 6.25 36.25 C5.74339844 35.45722656 5.23679688 34.66445313 4.71484375 33.84765625 C3.47201242 31.90133549 2.23538469 29.95105583 1 28 C0.34 33.94 -0.32 39.88 -1 46 C-4.3 46.99 -7.6 47.98 -11 49 C-12.07546944 45.77359168 -11.97250282 44.01173384 -11.66015625 40.66015625 C-11.56669922 39.59603516 -11.47324219 38.53191406 -11.37695312 37.43554688 C-11.27318359 36.32244141 -11.16941406 35.20933594 -11.0625 34.0625 C-9.24500814 19.43655396 -9.24500814 19.43655396 -11 5 C-9.73461631 4.15841464 -8.46246221 3.32700252 -7.1875 2.5 C-6.47980469 2.0359375 -5.77210938 1.571875 -5.04296875 1.09375 C-3 0 -3 0 0 0 Z " fill="#691562" transform="translate(162,228)"/>
<path d="M0 0 C2.16504258 6.22605265 4.3184272 12.45604632 6.46362305 18.68896484 C7.1952949 20.81034181 7.92966435 22.9307903 8.66674805 25.05029297 C9.72368894 28.09104155 10.77099063 31.13496037 11.81640625 34.1796875 C12.14967422 35.13181122 12.4829422 36.08393494 12.8263092 37.06491089 C13.27688942 38.38605392 13.27688942 38.38605392 13.73657227 39.73388672 C14.13961327 40.89970779 14.13961327 40.89970779 14.55079651 42.08908081 C15 44 15 44 14 46 C12.07421875 46.88671875 12.07421875 46.88671875 9.6875 47.6875 C8.90761719 47.95949219 8.12773437 48.23148437 7.32421875 48.51171875 C5 49 5 49 1 48 C0.34 45.36 -0.32 42.72 -1 40 C-5.62 40 -10.24 40 -15 40 C-15.99 42.97 -16.98 45.94 -18 49 C-24.93359375 46.8515625 -24.93359375 46.8515625 -27 46 C-27.33 45.34 -27.66 44.68 -28 44 C-27.62875 43.0925 -27.2575 42.185 -26.875 41.25 C-25.62852629 37.9486942 -25.62852629 37.9486942 -27.375 34.75 C-27.91125 33.8425 -28.4475 32.935 -29 32 C-29 31.34 -29 30.68 -29 30 C-25.535 29.505 -25.535 29.505 -22 29 C-21.73372803 28.22809326 -21.46745605 27.45618652 -21.19311523 26.66088867 C-19.9682171 23.15963584 -18.70351664 19.67408419 -17.4375 16.1875 C-16.81004883 14.36508789 -16.81004883 14.36508789 -16.16992188 12.50585938 C-12.98029185 3.84829215 -12.98029185 3.84829215 -10.27392578 1.50634766 C-6.89335122 -0.0524372 -3.64510899 -0.06743705 0 0 Z " fill="#AA0B2C" transform="translate(409,228)"/>
<path d="M0 0 C1.83788974 -0.00242893 3.67578569 0.00052763 5.51367188 0.00488281 C5.0054492 4.37559784 4.31316055 7.55218011 1.51367188 11.00488281 C-1.62304688 11.49316406 -1.62304688 11.49316406 -5.17382812 11.31738281 C-6.35332031 11.27226562 -7.5328125 11.22714844 -8.74804688 11.18066406 C-9.65167969 11.12265625 -10.5553125 11.06464844 -11.48632812 11.00488281 C-11.81632812 13.97488281 -12.14632813 16.94488281 -12.48632812 20.00488281 C-8.85632813 20.00488281 -5.22632813 20.00488281 -1.48632812 20.00488281 C-2.80632812 23.30488281 -4.12632812 26.60488281 -5.48632812 30.00488281 C-8.12632812 30.00488281 -10.76632812 30.00488281 -13.48632812 30.00488281 C-13.46570313 31.11863281 -13.44507813 32.23238281 -13.42382812 33.37988281 C-13.48632812 37.00488281 -13.48632812 37.00488281 -14.48632812 39.00488281 C-8.87632812 39.00488281 -3.26632812 39.00488281 2.51367188 39.00488281 C-1.23632812 46.75488281 -1.23632812 46.75488281 -3.48632812 49.00488281 C-6.57617188 49.23535156 -6.57617188 49.23535156 -10.42382812 49.19238281 C-11.09099854 49.1859375 -11.75816895 49.17949219 -12.44555664 49.17285156 C-18.15503045 49.08542332 -23.81415387 48.66526069 -29.48632812 48.00488281 C-29.48632812 45.00488281 -29.48632812 45.00488281 -28.52539062 43.17675781 C-27.23945355 40.48885926 -27.07300119 38.21830579 -26.86132812 35.25488281 C-26.7865625 34.27003906 -26.71179688 33.28519531 -26.63476562 32.27050781 C-26.58578125 31.52285156 -26.53679687 30.77519531 -26.48632812 30.00488281 C-27.47632813 30.00488281 -28.46632813 30.00488281 -29.48632812 30.00488281 C-27.61132812 25.12988281 -27.61132812 25.12988281 -26.48632812 24.00488281 C-26.09063704 21.99176832 -25.74380622 19.96891073 -25.42382812 17.94238281 C-25.24722656 16.83765625 -25.070625 15.73292969 -24.88867188 14.59472656 C-24.75589844 13.74007812 -24.623125 12.88542969 -24.48632812 12.00488281 C-26.13632812 12.00488281 -27.78632813 12.00488281 -29.48632812 12.00488281 C-28.94448311 7.39920018 -27.62361402 4.44095784 -24.48632812 1.00488281 C-20.91522884 0.09243995 -17.40747342 0.1202219 -13.73632812 0.12988281 C-12.77210938 0.10925781 -11.80789063 0.08863281 -10.81445312 0.06738281 C-7.20927712 -0.00119391 -3.60565724 0.00708102 0 0 Z " fill="#5A1875" transform="translate(306.486328125,227.9951171875)"/>
<path d="M0 0 C0.495 5.94 0.495 5.94 1 12 C-4 11 -4 11 -5.875 9.9375 C-9.07570559 8.525424 -11.54455226 8.63626866 -15 9 C-18.53813504 11.20150625 -20.4238361 13.18218078 -22 17 C-22.69808652 22.55389423 -22.05257338 27.81455145 -20 33 C-15.00347926 34.66550691 -9.94227317 34.63421165 -4.9375 33 C-3.9784375 32.505 -3.9784375 32.505 -3 32 C-2 33 -2 33 -1.8671875 34.99609375 C-1.86976563 35.80175781 -1.87234375 36.60742188 -1.875 37.4375 C-1.87113281 38.64212891 -1.87113281 38.64212891 -1.8671875 39.87109375 C-2 42 -2 42 -3 44 C-9.41116247 46.50871575 -16.63649444 47.29945343 -23.30859375 45.3125 C-29.30171848 42.59350201 -33.15276037 38.33385501 -35.8125 32.3125 C-38.36632282 24.60700011 -37.76680352 16.73099932 -34.46484375 9.36328125 C-31.20708665 4.10743312 -26.567842 0.33974365 -21.125 -2.5 C-13.42109514 -3.73262478 -6.9524063 -3.70795003 0 0 Z " fill="#3123BD" transform="translate(230,231)"/>
<path d="M0 0 C0 3.96 0 7.92 0 12 C-4 10 -4 10 -7 8 C-10.12521833 7.83300768 -10.12521833 7.83300768 -13 8 C-13.33 9.65 -13.66 11.3 -14 13 C-13.25234375 13.50789063 -12.5046875 14.01578125 -11.734375 14.5390625 C-1.3131125 21.82303394 -1.3131125 21.82303394 1 27 C1.72262294 31.96803271 0.89813222 35.27542229 -1.72265625 39.42578125 C-4.48936262 42.83551418 -7.90634731 44.6354491 -12 46 C-16.84841767 46.39027511 -21.46220677 46.39198651 -26.1875 45.1875 C-29.31645165 41.41117904 -28.3589036 36.6976493 -28 32 C-27.13375 32.495 -26.2675 32.99 -25.375 33.5 C-21.89250377 35.0477761 -19.75240542 35.26802896 -16 35 C-15.67 33.68 -15.34 32.36 -15 31 C-15.77085938 30.32453125 -16.54171875 29.6490625 -17.3359375 28.953125 C-18.34924574 28.05240656 -19.36225071 27.15134687 -20.375 26.25 C-20.88289063 25.8065625 -21.39078125 25.363125 -21.9140625 24.90625 C-25.38287338 21.8025771 -27.65812114 19.48195171 -28.30078125 14.81640625 C-28.33281781 8.65470757 -27.14843781 5.59294219 -23.1875 0.8125 C-16.4225435 -4.79274967 -7.207381 -4.43531138 0 0 Z " fill="#C4071D" transform="translate(109,231)"/>
<path d="M0 0 C2.31 4.29 4.62 8.58 7 13 C9.95609545 9.27386824 9.95609545 9.27386824 11.625 5.9375 C14.80910524 1.99926457 18.13423183 1.02154249 23 0 C23.99 0 24.98 0 26 0 C25.33188035 3.26370586 24.13614893 5.87728419 22.56640625 8.80859375 C22.08236328 9.72060547 21.59832031 10.63261719 21.09960938 11.57226562 C20.59236328 12.51779297 20.08511719 13.46332031 19.5625 14.4375 C18.56153336 16.3099869 17.56276038 18.18364846 16.56640625 20.05859375 C16.12240479 20.88673584 15.67840332 21.71487793 15.22094727 22.56811523 C12.91021931 27.17062697 11.86984437 30.80590932 11.5 35.9375 C10.93298509 39.70675487 10.56982446 41.45534446 7.7890625 44.11328125 C3.60635887 46.68300679 0.97514016 48 -4 48 C-3.855625 46.85402344 -3.71125 45.70804687 -3.5625 44.52734375 C-3.37477964 42.99742285 -3.18729203 41.46747339 -3 39.9375 C-2.90460938 39.18533203 -2.80921875 38.43316406 -2.7109375 37.65820312 C-2.44217625 35.44092279 -2.21379303 33.22319296 -2 31 C-1.8865625 29.865625 -1.773125 28.73125 -1.65625 27.5625 C-2.14561939 22.49085356 -4.21793668 18.56837577 -6.5 14.0625 C-6.92925781 13.18787109 -7.35851562 12.31324219 -7.80078125 11.41210938 C-8.85508236 9.26836379 -9.92157125 7.13168141 -11 5 C-7.7410665 1.54211998 -4.83323623 0 0 0 Z " fill="#481D8F" transform="translate(124,229)"/>
<path d="M0 0 C-0.26483996 4.33766989 -0.53144519 8.67522694 -0.79956055 13.01269531 C-0.89019382 14.48271886 -0.98037688 15.95277025 -1.07006836 17.42285156 C-1.28578802 20.9563155 -1.50710318 24.48921975 -1.74169922 28.02148438 C-1.90605486 30.55299618 -2.05521607 33.0855743 -2.18408203 35.61914062 C-2.24837402 36.68841797 -2.31266602 37.75769531 -2.37890625 38.859375 C-2.45153687 40.2510791 -2.45153687 40.2510791 -2.52563477 41.67089844 C-3.08256032 44.40536563 -3.7974468 45.3314495 -6 47 C-8.48046875 47.73046875 -8.48046875 47.73046875 -11.1875 48.1875 C-12.08855469 48.34605469 -12.98960937 48.50460937 -13.91796875 48.66796875 C-14.60503906 48.77753906 -15.29210937 48.88710938 -16 49 C-17.17227539 46.65544922 -17.04490437 45.55657385 -16.86987305 42.96508789 C-16.81619064 42.13405045 -16.76250824 41.303013 -16.7071991 40.4467926 C-16.61043633 39.09834511 -16.61043633 39.09834511 -16.51171875 37.72265625 C-16.41682915 36.33922279 -16.41682915 36.33922279 -16.32002258 34.92784119 C-16.18412443 32.97488201 -16.04522098 31.02213002 -15.90356445 29.06958008 C-15.68868008 26.07892378 -15.48931909 23.08749892 -15.29101562 20.09570312 C-15.15719644 18.20045377 -15.0224612 16.30526883 -14.88671875 14.41015625 C-14.82828293 13.51321548 -14.76984711 12.61627472 -14.7096405 11.69215393 C-14.64650162 10.85796432 -14.58336273 10.02377472 -14.51831055 9.16430664 C-14.46644089 8.4308754 -14.41457123 7.69744415 -14.36112976 6.94178772 C-14 5 -14 5 -12 2 C-10.1953125 1.26953125 -10.1953125 1.26953125 -8.125 0.8125 C-7.44695312 0.65394531 -6.76890625 0.49539062 -6.0703125 0.33203125 C-4 0 -4 0 0 0 Z " fill="#891043" transform="translate(379,228)"/>
<path d="M0 0 C4.29 0 8.58 0 13 0 C12.67 3.63 12.34 7.26 12 11 C18.01780121 9.80354858 18.01780121 9.80354858 22.48828125 6.01953125 C23.71536334 3.58469136 23.71536334 3.58469136 25 0 C29.62 0 34.24 0 39 0 C36.19116194 8.42651418 33.07391808 12.1834327 25.1875 16.3125 C14.99902096 20.99470544 6.08997473 21.26300335 -5 21 C-4.72285156 20.40574219 -4.44570313 19.81148438 -4.16015625 19.19921875 C-1.31219613 12.68235627 -0.36403158 7.09861572 0 0 Z " fill="#AA0B2B" transform="translate(318,256)"/>
<path d="M0 0 C1.17430074 3.2681432 2.33811256 6.53992515 3.5 9.8125 C3.83386719 10.74126953 4.16773438 11.67003906 4.51171875 12.62695312 C4.82753906 13.51962891 5.14335937 14.41230469 5.46875 15.33203125 C5.76201172 16.15421143 6.05527344 16.9763916 6.35742188 17.82348633 C7 20 7 20 7 23 C3.04 23 -0.92 23 -5 23 C-4.67 25.64 -4.34 28.28 -4 31 C-6.31 31 -8.62 31 -11 31 C-10.34 28.36 -9.68 25.72 -9 23 C-12.3 23 -15.6 23 -19 23 C-18.23489092 20.62302081 -17.46312564 18.24854779 -16.6875 15.875 C-16.47416016 15.20984375 -16.26082031 14.5446875 -16.04101562 13.859375 C-14.67983032 9.71487048 -13.20701424 5.78671177 -11 2 C-7.20518751 0.18508968 -4.14151874 -0.07019523 0 0 Z " fill="#3F1F9F" transform="translate(409,228)"/>
<path d="M0 0 C4.62 0 9.24 0 14 0 C17 6 17 6 17 8 C21.99652074 9.66550691 27.05772683 9.63421165 32.0625 8 C33.0215625 7.505 33.0215625 7.505 34 7 C35 8 35 8 35.1328125 9.99609375 C35.13023437 10.80175781 35.12765625 11.60742188 35.125 12.4375 C35.12886719 13.64212891 35.12886719 13.64212891 35.1328125 14.87109375 C35 17 35 17 34 19 C27.58883753 21.50871575 20.36350556 22.29945343 13.69140625 20.3125 C7.48861558 17.49837947 3.6939697 13.13669437 1.1875 6.8125 C0 3 0 3 0 0 Z " fill="#AA0B2C" transform="translate(193,256)"/>
<path d="M0 0 C0 3.96 0 7.92 0 12 C-4 10 -4 10 -7 8 C-10.12521833 7.83300768 -10.12521833 7.83300768 -13 8 C-13.33 9.65 -13.66 11.3 -14 13 C-13.3503125 13.42152344 -12.700625 13.84304687 -12.03125 14.27734375 C-11.1959375 14.82519531 -10.360625 15.37304688 -9.5 15.9375 C-8.6646875 16.48277344 -7.829375 17.02804688 -6.96875 17.58984375 C-6.3190625 18.05519531 -5.669375 18.52054688 -5 19 C-5 19.33 -5 19.66 -5 20 C-8.458176 20.0868329 -11.91607344 20.14033282 -15.375 20.1875 C-16.85226563 20.22520508 -16.85226563 20.22520508 -18.359375 20.26367188 C-19.77089844 20.27817383 -19.77089844 20.27817383 -21.2109375 20.29296875 C-22.08024902 20.3086792 -22.94956055 20.32438965 -23.84521484 20.34057617 C-24.55629395 20.22818604 -25.26737305 20.1157959 -26 20 C-28.69585296 15.95622056 -28.54411743 12.74637816 -28 8 C-25.92548968 3.33235177 -22.96990522 -0.08376501 -18.3125 -2.25 C-11.46269309 -3.80089968 -6.13194527 -3.77350478 0 0 Z " fill="#2128E4" transform="translate(109,231)"/>
<path d="M0 0 C10.56 0 21.12 0 32 0 C26.60705913 5.39294087 22.66200548 8.15647973 15 8.1875 C13.515 8.0946875 13.515 8.0946875 12 8 C11.67 11.96 11.34 15.92 11 20 C2.5 24 2.5 24 -2 24 C-1.85873374 20.93722733 -1.71215604 17.87486458 -1.5625 14.8125 C-1.50352539 13.51602539 -1.50352539 13.51602539 -1.44335938 12.19335938 C-1.40146484 11.35224609 -1.35957031 10.51113281 -1.31640625 9.64453125 C-1.27974854 8.87471924 -1.24309082 8.10490723 -1.20532227 7.31176758 C-0.98679335 4.85130346 -0.48443617 2.42218086 0 0 Z " fill="#781352" transform="translate(238,253)"/>
<path d="M0 0 C1.83788974 -0.00242893 3.67578569 0.00052763 5.51367188 0.00488281 C5.0054492 4.37559784 4.31316055 7.55218011 1.51367188 11.00488281 C-1.62304688 11.49316406 -1.62304688 11.49316406 -5.17382812 11.31738281 C-6.35332031 11.27226562 -7.5328125 11.22714844 -8.74804688 11.18066406 C-9.65167969 11.12265625 -10.5553125 11.06464844 -11.48632812 11.00488281 C-11.48632812 12.32488281 -11.48632812 13.64488281 -11.48632812 15.00488281 C-15.77632813 15.00488281 -20.06632812 15.00488281 -24.48632812 15.00488281 C-24.48632812 14.01488281 -24.48632812 13.02488281 -24.48632812 12.00488281 C-26.13632812 12.00488281 -27.78632813 12.00488281 -29.48632812 12.00488281 C-28.94448311 7.39920018 -27.62361402 4.44095784 -24.48632812 1.00488281 C-20.91522884 0.09243995 -17.40747342 0.1202219 -13.73632812 0.12988281 C-12.77210938 0.10925781 -11.80789063 0.08863281 -10.81445312 0.06738281 C-7.20927712 -0.00119391 -3.60565724 0.00708102 0 0 Z " fill="#2028E7" transform="translate(306.486328125,227.9951171875)"/>
<path d="M0 0 C6.93411755 0.33674109 13.29880558 1.99207795 19.9375 3.9375 C20.88173828 4.20240234 21.82597656 4.46730469 22.79882812 4.74023438 C29.74364154 6.74364154 29.74364154 6.74364154 32 9 C32.25 12 32.25 12 32 15 C30 17 30 17 27.98632812 17.07983398 C21.58313488 16.37240084 15.64380286 14.98013907 9.5 13.0625 C8.60796875 12.79759766 7.7159375 12.53269531 6.796875 12.25976562 C0.26581243 10.26581243 0.26581243 10.26581243 -2 8 C-2.25 5 -2.25 5 -2 2 C-1.34 1.34 -0.68 0.68 0 0 Z " fill="#FEF9FA" transform="translate(197,371)"/>
<path d="M0 0 C3.91539236 0.17401744 5.53805831 0.5255734 8.3125 3.375 C11.36839158 8.12860912 11.63072359 12.50115633 11 18 C9.61528583 22.58142575 8.01142981 25.32571346 4 28 C1 29 1 29 -3 29 C-2.73934772 25.03026959 -2.4727094 21.06099203 -2.20043945 17.09204102 C-2.1086091 15.74091591 -2.01843502 14.38967719 -1.92993164 13.03833008 C-1.80266594 11.09948332 -1.66901017 9.16105931 -1.53515625 7.22265625 C-1.456604 6.05484619 -1.37805176 4.88703613 -1.29711914 3.68383789 C-1 1 -1 1 0 0 Z " fill="#FFFFFF" transform="translate(333,238)"/>
<path d="M0 0 C3.96 0 7.92 0 12 0 C12 0.66 12 1.32 12 2 C17.61 2 23.22 2 29 2 C25.25 9.75 25.25 9.75 23 12 C19.91015625 12.23046875 19.91015625 12.23046875 16.0625 12.1875 C15.39532959 12.18105469 14.72815918 12.17460937 14.04077148 12.16796875 C8.33129768 12.08054051 2.67217426 11.66037788 -3 11 C-3 6.84023697 -1.52159105 3.86737724 0 0 Z " fill="#C5071C" transform="translate(280,265)"/>
<path d="M0 0 C4.29 0 8.58 0 13 0 C12.67 2.97 12.34 5.94 12 9 C17.46489621 7.22380973 17.46489621 7.22380973 20.9375 2.8125 C21.4634375 1.4203125 21.4634375 1.4203125 22 0 C26.29 0 30.58 0 35 0 C34.25 6.625 34.25 6.625 32 10 C29.44604513 10.26711404 27.13725626 10.34849029 24.5859375 10.29296875 C23.85629791 10.28872391 23.12665833 10.28447906 22.37490845 10.28010559 C20.04123241 10.26329353 17.7084156 10.22563868 15.375 10.1875 C13.79428329 10.17245634 12.21355307 10.15876738 10.6328125 10.14648438 C6.75487656 10.11338201 2.87758402 10.06158404 -1 10 C-1.125 2.25 -1.125 2.25 0 0 Z " fill="#581978" transform="translate(239,243)"/>
<path d="M0 0 C3.3 0 6.6 0 10 0 C9.125 5.75 9.125 5.75 8 8 C10.31 8 12.62 8 15 8 C14.67 5.36 14.34 2.72 14 0 C18.29 0 22.58 0 27 0 C27.99 3.3 28.98 6.6 30 10 C17.13 10 4.26 10 -9 10 C-9.33 9.01 -9.66 8.02 -10 7 C-8.906875 6.95875 -7.81375 6.9175 -6.6875 6.875 C-2.75003667 6.39434602 -2.75003667 6.39434602 -1.0625 2.9375 C-0.711875 1.968125 -0.36125 0.99875 0 0 Z " fill="#861146" transform="translate(390,251)"/>
<path d="M0 0 C5.28 0 10.56 0 16 0 C16 5.61 16 11.22 16 17 C10.72 17 5.44 17 0 17 C0 11.39 0 5.78 0 0 Z " fill="#DA0A18" transform="translate(329,332)"/>
<path d="M0 0 C5.61 0 11.22 0 17 0 C17 5.28 17 10.56 17 16 C11.39 16 5.78 16 0 16 C0 10.72 0 5.44 0 0 Z " fill="#1F35FF" transform="translate(147,154)"/>
<path d="M0 0 C5.53511627 2.03751672 6.99088711 3.34896045 10.93359375 8.27734375 C-1.93640625 8.27734375 -14.80640625 8.27734375 -28.06640625 8.27734375 C-19.79499134 -1.37264031 -12.09692238 -2.85086706 0 0 Z " fill="#2128E4" transform="translate(343.06640625,228.72265625)"/>
<path d="M0 0 C2.4375 2.125 2.4375 2.125 4 4 C4 4.33 4 4.66 4 5 C-8.54 5 -21.08 5 -34 5 C-33.67 3.35 -33.34 1.7 -33 0 C-22.93068931 -3.68389416 -9.60658099 -5.72306952 0 0 Z " fill="#2028E7" transform="translate(269,231)"/>
<path d="M0 0 C1.20970459 0.00523682 2.41940918 0.01047363 3.66577148 0.01586914 C4.97094727 0.0190918 6.27612305 0.02231445 7.62084961 0.02563477 C9.00952213 0.03399138 10.39819401 0.04245634 11.78686523 0.05102539 C13.17944179 0.05603873 14.57202005 0.06060193 15.96459961 0.06469727 C19.38456394 0.07653105 22.80444367 0.09301659 26.22436523 0.11352539 C25.22436523 3.11352539 25.22436523 3.11352539 22.71264648 4.46508789 C21.66463867 4.88532227 20.61663086 5.30555664 19.53686523 5.73852539 C18.50174805 6.16391602 17.46663086 6.58930664 16.40014648 7.02758789 C10.70449987 8.97517677 5.32574665 9.25130927 -0.65063477 9.17602539 C-1.68317383 9.16925781 -1.68317383 9.16925781 -2.73657227 9.16235352 C-4.41629812 9.15068875 -6.09597852 9.1327581 -7.77563477 9.11352539 C-7.13224996 7.79982339 -6.48585261 6.48759641 -5.83813477 5.17602539 C-5.47848633 4.44512695 -5.11883789 3.71422852 -4.74829102 2.96118164 C-3.25962869 0.13332108 -3.25962869 0.13332108 0 0 Z " fill="#C4071C" transform="translate(320.775634765625,267.886474609375)"/>
<path d="M0 0 C2.475 7.425 2.475 7.425 5 15 C-1.93 15 -8.86 15 -16 15 C-13 6 -13 6 -11 2 C-6.98393529 0.21508235 -4.49318557 0 0 0 Z " fill="#3123BC" transform="translate(409,228)"/>
<path d="M0 0 C9.9 0 19.8 0 30 0 C29.67 2.31 29.34 4.62 29 7 C22.45482741 9.32717247 15.35409109 10.4513637 8.62109375 8.20703125 C5.2314703 6.57776473 2.47480124 4.8746929 0 2 C0 1.34 0 0.68 0 0 Z " fill="#C3071D" transform="translate(198,268)"/>
<path d="M0 0 C3.582906 -0.14533755 7.16505417 -0.23407931 10.75 -0.3125 C11.76578125 -0.35439453 12.7815625 -0.39628906 13.828125 -0.43945312 C21.30741671 -0.56246779 21.30741671 -0.56246779 24.640625 2.14453125 C26.07322049 5.15380512 26.69208966 7.6899639 27 11 C14.90205764 13.56172277 14.90205764 13.56172277 10.11181641 10.98388672 C6.26903213 8.10891478 3.04934312 4.69101123 0 1 C0 0.67 0 0.34 0 0 Z " fill="#781352" transform="translate(83,251)"/>
<path d="M0 0 C-0.33 7.59 -0.66 15.18 -1 23 C-4.3 23 -7.6 23 -11 23 C-11.08066072 19.70784762 -11.14033374 16.41765422 -11.1875 13.125 C-11.21263672 12.18785156 -11.23777344 11.25070313 -11.26367188 10.28515625 C-11.27333984 9.38925781 -11.28300781 8.49335938 -11.29296875 7.5703125 C-11.3086792 6.74289551 -11.32438965 5.91547852 -11.34057617 5.06298828 C-11.22818604 4.38220215 -11.1157959 3.70141602 -11 3 C-7.25593545 0.50395696 -4.45848315 0 0 0 Z " fill="#3123BD" transform="translate(188,228)"/>
<path d="M0 0 C0 1.98 0 3.96 0 6 C-10.23 6 -20.46 6 -31 6 C-23.00716817 -3.99103979 -11.3694546 -6.06370912 0 0 Z " fill="#2128E4" transform="translate(230,231)"/>
<path d="M0 0 C6.27 0 12.54 0 19 0 C19 9 19 9 17.03125 11.19140625 C16.1959375 11.64386719 15.360625 12.09632813 14.5 12.5625 C13.6646875 13.03816406 12.829375 13.51382812 11.96875 14.00390625 C10.99421875 14.49697266 10.99421875 14.49697266 10 15 C5.84710903 11.32628876 2.76621742 6.77633541 0 2 C0 1.34 0 0.68 0 0 Z " fill="#990D37" transform="translate(168,262)"/>
<path d="M0 0 C4.62 0 9.24 0 14 0 C14 1.65 14 3.3 14 5 C15.95264271 6.86919567 15.95264271 6.86919567 18.5 8.25 C20.00822361 9.15307216 21.51061768 10.06618092 23 11 C23 11.33 23 11.66 23 12 C19.541824 12.0868329 16.08392656 12.14033282 12.625 12.1875 C11.14773437 12.22520508 11.14773437 12.22520508 9.640625 12.26367188 C8.22910156 12.27817383 8.22910156 12.27817383 6.7890625 12.29296875 C5.91975098 12.3086792 5.05043945 12.32438965 4.15478516 12.34057617 C3.44370605 12.22818604 2.73262695 12.1157959 2 12 C-0.80163026 7.7975546 -0.14489712 4.99895065 0 0 Z " fill="#4D1B88" transform="translate(81,239)"/>
<path d="M0 0 C7.92 0 15.84 0 24 0 C23.67 1.32 23.34 2.64 23 4 C20.36 4 17.72 4 15 4 C15 6.31 15 8.62 15 11 C10.71 11 6.42 11 2 11 C2 8.69 2 6.38 2 4 C1.01 4 0.02 4 -1 4 C-0.67 2.68 -0.34 1.36 0 0 Z " fill="#721458" transform="translate(278,254)"/>
<path d="M0 0 C2.64 4.95 5.28 9.9 8 15 C2.39 15 -3.22 15 -9 15 C-9.66 11.7 -10.32 8.4 -11 5 C-3.375 0 -3.375 0 0 0 Z " fill="#3123BC" transform="translate(162,228)"/>
<path d="M0 0 C-0.33 4.95 -0.66 9.9 -1 15 C-5.29 15 -9.58 15 -14 15 C-14.25 5.375 -14.25 5.375 -12 2 C-10.1953125 1.26953125 -10.1953125 1.26953125 -8.125 0.8125 C-7.44695312 0.65394531 -6.76890625 0.49539062 -6.0703125 0.33203125 C-4 0 -4 0 0 0 Z " fill="#3123BD" transform="translate(379,228)"/>
<path d="M0 0 C1.65322266 0.01740234 1.65322266 0.01740234 3.33984375 0.03515625 C4.99693359 0.04869141 4.99693359 0.04869141 6.6875 0.0625 C7.54214844 0.07410156 8.39679688 0.08570313 9.27734375 0.09765625 C9.35856299 1.70098416 9.41663509 3.30549651 9.46484375 4.91015625 C9.49964844 5.80347656 9.53445313 6.69679688 9.5703125 7.6171875 C9.27734375 10.09765625 9.27734375 10.09765625 8.08984375 11.84765625 C5.78430301 13.43768435 3.84334402 13.82027958 1.08984375 14.28515625 C0.18878906 14.44371094 -0.71226562 14.60226562 -1.640625 14.765625 C-2.32769531 14.87519531 -3.01476562 14.98476563 -3.72265625 15.09765625 C-5.13101087 12.28094702 -4.62266173 10.15312379 -4.34765625 7.03515625 C-4.25742187 5.95105469 -4.1671875 4.86695313 -4.07421875 3.75 C-3.59425215 0.12891866 -3.59425215 0.12891866 0 0 Z " fill="#C3071D" transform="translate(366.72265625,261.90234375)"/>
<path d="M0 0 C1.65322266 0.01740234 1.65322266 0.01740234 3.33984375 0.03515625 C4.99693359 0.04869141 4.99693359 0.04869141 6.6875 0.0625 C7.54214844 0.07410156 8.39679688 0.08570313 9.27734375 0.09765625 C8.94734375 3.72765625 8.61734375 7.35765625 8.27734375 11.09765625 C-0.22265625 15.09765625 -0.22265625 15.09765625 -4.72265625 15.09765625 C-4.58239342 12.78481169 -4.43530067 10.47238034 -4.28515625 8.16015625 C-4.20394531 6.87238281 -4.12273437 5.58460938 -4.0390625 4.2578125 C-3.62577595 0.13004935 -3.62577595 0.13004935 0 0 Z " fill="#C4071D" transform="translate(240.72265625,261.90234375)"/>
<path d="M0 0 C1.65322266 0.01740234 1.65322266 0.01740234 3.33984375 0.03515625 C4.99693359 0.04869141 4.99693359 0.04869141 6.6875 0.0625 C7.54214844 0.07410156 8.39679688 0.08570313 9.27734375 0.09765625 C9.52178439 3.33290003 9.38905364 6.03172987 8.27734375 9.09765625 C4.04171879 12.90280027 -0.0115931 15.09765625 -5.72265625 15.09765625 C-5.41522722 12.78447664 -5.10157923 10.47212273 -4.78515625 8.16015625 C-4.61113281 6.87238281 -4.43710938 5.58460938 -4.2578125 4.2578125 C-3.55838766 0.12763227 -3.55838766 0.12763227 0 0 Z " fill="#C2071D" transform="translate(125.72265625,261.90234375)"/>
<path d="M0 0 C2.31 4.62 4.62 9.24 7 14 C2.38 14 -2.24 14 -7 14 C-8.32 10.7 -9.64 7.4 -11 4 C-3.375 0 -3.375 0 0 0 Z " fill="#3123BC" transform="translate(124,229)"/>
<path d="M0 0 C12.87 0 25.74 0 39 0 C39.495 1.98 39.495 1.98 40 4 C27.13 4 14.26 4 1 4 C0.67 2.68 0.34 1.36 0 0 Z " fill="#970E39" transform="translate(381,261)"/>
<path d="M0 0 C10.23 0 20.46 0 31 0 C30.67 0.99 30.34 1.98 30 3 C25.71 3 21.42 3 17 3 C17 4.32 17 5.64 17 7 C12.71 7 8.42 7 4 7 C4 6.01 4 5.02 4 4 C2.35 4 0.7 4 -1 4 C-0.67 2.68 -0.34 1.36 0 0 Z " fill="#2726D3" transform="translate(278,236)"/>
<path d="M0 0 C-1.03539776 5.09368094 -3.64236994 9.40564398 -6 14 C-9.96 14 -13.92 14 -18 14 C-13.25 4.25 -13.25 4.25 -11 2 C-9.16015625 1.3671875 -9.16015625 1.3671875 -7.0625 0.875 C-6.37285156 0.70742187 -5.68320313 0.53984375 -4.97265625 0.3671875 C-3 0 -3 0 0 0 Z " fill="#3123BC" transform="translate(150,229)"/>
<path d="M0 0 C3.96 0 7.92 0 12 0 C12 3.96 12 7.92 12 12 C8.04 12 4.08 12 0 12 C0 8.04 0 4.08 0 0 Z " fill="#DB0918" transform="translate(342,360)"/>
<path d="M0 0 C3.96 0 7.92 0 12 0 C12 3.96 12 7.92 12 12 C8.04 12 4.08 12 0 12 C0 8.04 0 4.08 0 0 Z " fill="#283FFF" transform="translate(139,130)"/>
<path d="M0 0 C3.63 0 7.26 0 11 0 C10.67 3.96 10.34 7.92 10 12 C5.05 13.485 5.05 13.485 0 15 C-1.14229879 11.57310364 -0.90861076 9.38897782 -0.5625 5.8125 C-0.46066406 4.72582031 -0.35882813 3.63914062 -0.25390625 2.51953125 C-0.17011719 1.68808594 -0.08632812 0.85664063 0 0 Z " fill="#C4071D" transform="translate(151,262)"/>
<path d="M0 0 C4.62 0 9.24 0 14 0 C13.67 3.3 13.34 6.6 13 10 C8.38 10 3.76 10 -1 10 C-1.125 2.25 -1.125 2.25 0 0 Z " fill="#641768" transform="translate(194,246)"/>
<path d="M0 0 C4.95 0 9.9 0 15 0 C15.125 7.75 15.125 7.75 14 10 C9.71 10 5.42 10 1 10 C0.67 6.7 0.34 3.4 0 0 Z " fill="#4C1C89" transform="translate(343,246)"/>
<path d="M0 0 C5.28 0 10.56 0 16 0 C15.01 3.3 14.02 6.6 13 10 C6.565 10.495 6.565 10.495 0 11 C0 7.37 0 3.74 0 0 Z " fill="#891043" transform="translate(122,252)"/>
<path d="M0 0 C7.59 0 15.18 0 23 0 C23 1.98 23 3.96 23 6 C16.4 6 9.8 6 3 6 C2.01 4.02 1.02 2.04 0 0 Z " fill="#781352" transform="translate(164,256)"/>
<path d="M0 0 C4.29 0 8.58 0 13 0 C12.67 3.3 12.34 6.6 12 10 C7.71 10 3.42 10 -1 10 C-0.67 6.7 -0.34 3.4 0 0 Z " fill="#4C1C89" transform="translate(319,246)"/>
<path d="M0 0 C3.63 0 7.26 0 11 0 C11 3.63 11 7.26 11 11 C7.37 11 3.74 11 0 11 C0 7.37 0 3.74 0 0 Z " fill="#2F47FF" transform="translate(124,148)"/>
<path d="M0 0 C1.26457031 0.04640625 2.52914062 0.0928125 3.83203125 0.140625 C5.74048828 0.19476563 5.74048828 0.19476563 7.6875 0.25 C8.66332031 0.29640625 9.63914062 0.3428125 10.64453125 0.390625 C10.26953125 3.328125 10.26953125 3.328125 9.64453125 6.390625 C6.93051831 7.74763147 4.79606809 7.5030111 1.76171875 7.48828125 C0.59511719 7.48505859 -0.57148437 7.48183594 -1.7734375 7.47851562 C-2.99675781 7.47013672 -4.22007813 7.46175781 -5.48046875 7.453125 C-6.71152344 7.44861328 -7.94257812 7.44410156 -9.2109375 7.43945312 C-12.25916267 7.4276383 -15.30729189 7.41116528 -18.35546875 7.390625 C-18.35546875 5.410625 -18.35546875 3.430625 -18.35546875 1.390625 C-17.05609375 2.133125 -17.05609375 2.133125 -15.73046875 2.890625 C-12.17986746 4.46867002 -10.17976544 4.9855156 -6.35546875 4.390625 C-5.95070313 3.72675781 -5.5459375 3.06289063 -5.12890625 2.37890625 C-3.35546875 0.390625 -3.35546875 0.390625 0 0 Z " fill="#AA0B2C" transform="translate(99.35546875,261.609375)"/>
<path d="M0 0 C5.61 0 11.22 0 17 0 C17.99 1.98 18.98 3.96 20 6 C13.4 6 6.8 6 0 6 C0 4.02 0 2.04 0 0 Z " fill="#481C8F" transform="translate(153,243)"/>
<path d="M0 0 C5.61 0 11.22 0 17 0 C19 4 19 4 19 7 C14.05 7 9.1 7 4 7 C2.02 3.535 2.02 3.535 0 0 Z " fill="#3123BD" transform="translate(339,239)"/>
<path d="M0 0 C3.3 0 6.6 0 10 0 C10 3.63 10 7.26 10 11 C6.7 11 3.4 11 0 11 C0 7.37 0 3.74 0 0 Z " fill="#DA0918" transform="translate(358,343)"/>
<path d="M0 0 C3.60401481 -0.08701039 7.20776012 -0.14039388 10.8125 -0.1875 C12.34874023 -0.22520508 12.34874023 -0.22520508 13.91601562 -0.26367188 C15.39038086 -0.27817383 15.39038086 -0.27817383 16.89453125 -0.29296875 C18.25348511 -0.31653442 18.25348511 -0.31653442 19.63989258 -0.34057617 C22 0 22 0 23.8190918 1.39331055 C25 3 25 3 25 5 C21.58378212 5.14539953 18.16836009 5.23409725 14.75 5.3125 C13.78191406 5.35439453 12.81382813 5.39628906 11.81640625 5.43945312 C4.5980051 5.56390832 4.5980051 5.56390832 1.328125 2.48046875 C0.88984375 1.66191406 0.4515625 0.84335938 0 0 Z " fill="#631768" transform="translate(83,251)"/>
<path d="M0 0 C6.72 0.72 6.72 0.72 8 2 C8.41980966 5.69432504 8.25288902 7.56230746 6.375 10.8125 C3.534815 13.42845986 1.75114188 13.5221148 -2 14 C-1.85970581 11.8537974 -1.71261836 9.70803782 -1.5625 7.5625 C-1.48128906 6.36753906 -1.40007812 5.17257813 -1.31640625 3.94140625 C-1 1 -1 1 0 0 Z " fill="#FFFFFF" transform="translate(253,238)"/>
<path d="M0 0 C4.29 0 8.58 0 13 0 C12.67 2.64 12.34 5.28 12 8 C7.71 8 3.42 8 -1 8 C-0.67 5.36 -0.34 2.72 0 0 Z " fill="#4C1C89" transform="translate(365,243)"/>
<path d="M0 0 C1.79244141 0.01740234 1.79244141 0.01740234 3.62109375 0.03515625 C5.41740234 0.04869141 5.41740234 0.04869141 7.25 0.0625 C8.17683594 0.07410156 9.10367187 0.08570313 10.05859375 0.09765625 C10.71859375 1.74765625 11.37859375 3.39765625 12.05859375 5.09765625 C10.48134028 5.79899224 8.89648042 6.48323925 7.30859375 7.16015625 C6.426875 7.54300781 5.54515625 7.92585938 4.63671875 8.3203125 C1.90603066 9.14365633 0.68958028 9.07505545 -1.94140625 8.09765625 C-2.60140625 5.78765625 -3.26140625 3.47765625 -3.94140625 1.09765625 C-2.94140625 0.09765625 -2.94140625 0.09765625 0 0 Z " fill="#C3071D" transform="translate(411.94140625,267.90234375)"/>
<path d="M0 0 C0 0.33 0 0.66 0 1 C-16.335 1.495 -16.335 1.495 -33 2 C-33 1.34 -33 0.68 -33 0 C-22.73116753 -3.75688993 -9.87017661 -5.50893578 0 0 Z " fill="#192AF8" transform="translate(269,231)"/>
<path d="M0 0 C-0.33 3.63 -0.66 7.26 -1 11 C-4.3 11 -7.6 11 -11 11 C-11.29296875 4.9453125 -11.29296875 4.9453125 -11 3 C-7.25593545 0.50395696 -4.45848315 0 0 0 Z " fill="#2028E7" transform="translate(188,228)"/>
<path d="M0 0 C-0.33 1.32 -0.66 2.64 -1 4 C-10.9 4 -20.8 4 -31 4 C-30.67 3.01 -30.34 2.02 -30 1 C-26.50014278 0.83024428 -23.00009554 0.66476277 -19.5 0.5 C-18.51773437 0.45230469 -17.53546875 0.40460938 -16.5234375 0.35546875 C-11.00800467 0.09808188 -5.52135535 -0.05258434 0 0 Z " fill="#192AF8" transform="translate(312,228)"/>
<path d="M0 0 C4.62 0 9.24 0 14 0 C14 1.65 14 3.3 14 5 C14.33 5.66 14.66 6.32 15 7 C10.05 7 5.1 7 0 7 C0 4.69 0 2.38 0 0 Z " fill="#3123BD" transform="translate(81,239)"/>
<path d="M0 0 C1.25664978 2.90600261 2 4.79604584 2 8 C-2.95 8 -7.9 8 -13 8 C-12.34 6.02 -11.68 4.04 -11 2 C-7.29247139 0.18743046 -4.09459181 -0.24085834 0 0 Z " fill="#2028E7" transform="translate(409,228)"/>
<path d="M0 0 C10.56 0 21.12 0 32 0 C31.01 1.485 31.01 1.485 30 3 C27.01904297 3.34057617 27.01904297 3.34057617 23.2421875 3.29296875 C22.57913605 3.28872391 21.91608459 3.28447906 21.23294067 3.28010559 C19.11321559 3.26329971 16.99443812 3.22564701 14.875 3.1875 C13.43881581 3.17245549 12.00261672 3.15876668 10.56640625 3.14648438 C7.04396236 3.1133909 3.52207364 3.0615968 0 3 C0 2.01 0 1.02 0 0 Z " fill="#681663" transform="translate(238,253)"/>
<path d="M0 0 C0 0.33 0 0.66 0 1 C-9.24 1 -18.48 1 -28 1 C-22.80691448 -6.78962828 -7.33379677 -3.59206373 0 0 Z " fill="#192AF8" transform="translate(348,231)"/>
<path d="M0 0 C6.93 0 13.86 0 21 0 C21.66 1.32 22.32 2.64 23 4 C15.41 4 7.82 4 0 4 C0 2.68 0 1.36 0 0 Z " fill="#571978" transform="translate(152,249)"/>
<path d="M0 0 C4.29 0 8.58 0 13 0 C12.67 1.65 12.34 3.3 12 5 C15.63 5 19.26 5 23 5 C23 5.33 23 5.66 23 6 C15.08 6 7.16 6 -1 6 C-0.67 4.02 -0.34 2.04 0 0 Z " fill="#491C8E" transform="translate(282,243)"/>
<path d="M0 0 C10.56 0 21.12 0 32 0 C32.495 2.97 32.495 2.97 33 6 C30.50983944 5.58497324 28.40954215 5.22979988 26.19433594 3.98681641 C23.42116999 2.73969394 21.17599262 2.67885692 18.140625 2.5859375 C16.46806641 2.52792969 16.46806641 2.52792969 14.76171875 2.46875 C13.60285156 2.4378125 12.44398438 2.406875 11.25 2.375 C10.07566406 2.33632812 8.90132812 2.29765625 7.69140625 2.2578125 C4.79442732 2.1636018 1.89745374 2.07798398 -1 2 C-0.67 1.34 -0.34 0.68 0 0 Z " fill="#2925CF" transform="translate(198,237)"/>
<path d="M0 0 C-0.33 2.64 -0.66 5.28 -1 8 C-5.29 8 -9.58 8 -14 8 C-13.67 6.35 -13.34 4.7 -13 3 C-11.58603098 2.49242138 -10.16868271 1.99425075 -8.75 1.5 C-7.96109375 1.2215625 -7.1721875 0.943125 -6.359375 0.65625 C-4 0 -4 0 0 0 Z " fill="#2028E7" transform="translate(379,228)"/>
<path d="M0 0 C4.62 0 9.24 0 14 0 C14.66 1.98 15.32 3.96 16 6 C11.05 6.33 6.1 6.66 1 7 C0.67 4.69 0.34 2.38 0 0 Z " fill="#891043" transform="translate(193,256)"/>
<path d="M0 0 C1.93166016 0.01740234 1.93166016 0.01740234 3.90234375 0.03515625 C5.19269531 0.04417969 6.48304688 0.05320312 7.8125 0.0625 C8.81152344 0.07410156 9.81054688 0.08570313 10.83984375 0.09765625 C10.625 1.92578125 10.625 1.92578125 9.83984375 4.09765625 C7.7734375 5.58203125 7.7734375 5.58203125 5.27734375 6.84765625 C4.03791016 7.48960937 4.03791016 7.48960937 2.7734375 8.14453125 C2.13535156 8.4590625 1.49726563 8.77359375 0.83984375 9.09765625 C-1.63515625 5.13765625 -1.63515625 5.13765625 -4.16015625 1.09765625 C-3.16015625 0.09765625 -3.16015625 0.09765625 0 0 Z " fill="#C0071E" transform="translate(176.16015625,267.90234375)"/>
<path d="M0 0 C4.62 0 9.24 0 14 0 C12 6 12 6 10 7 C7.95501575 6.91219597 5.91255052 6.75758462 3.875 6.5625 C2.77929688 6.46066406 1.68359375 6.35882813 0.5546875 6.25390625 C-0.28835938 6.17011719 -1.13140625 6.08632813 -2 6 C-1.34 4.02 -0.68 2.04 0 0 Z " fill="#891043" transform="translate(343,256)"/>
<path d="M0 0 C4.29 0 8.58 0 13 0 C13 1.65 13 3.3 13 5 C12 6 12 6 9.05859375 6.09765625 C7.26615234 6.08025391 7.26615234 6.08025391 5.4375 6.0625 C3.64119141 6.04896484 3.64119141 6.04896484 1.80859375 6.03515625 C0.88175781 6.02355469 -0.04507813 6.01195312 -1 6 C-0.67 4.02 -0.34 2.04 0 0 Z " fill="#481D8F" transform="translate(239,243)"/>
<path d="M0 0 C1.33998047 0.06960938 1.33998047 0.06960938 2.70703125 0.140625 C3.60808594 0.17671875 4.50914062 0.2128125 5.4375 0.25 C6.46810547 0.31960938 6.46810547 0.31960938 7.51953125 0.390625 C6.52953125 3.360625 5.53953125 6.330625 4.51953125 9.390625 C-2.4140625 7.2421875 -2.4140625 7.2421875 -4.48046875 6.390625 C-4.81046875 5.730625 -5.14046875 5.070625 -5.48046875 4.390625 C-3.17521711 0.50003419 -3.17521711 0.50003419 0 0 Z " fill="#C3071D" transform="translate(386.48046875,267.609375)"/>
<path d="M0 0 C4.29 0 8.58 0 13 0 C12.67 1.98 12.34 3.96 12 6 C7.38 6 2.76 6 -2 6 C-1.34 4.02 -0.68 2.04 0 0 Z " fill="#481D8F" transform="translate(261,243)"/>
<path d="M0 0 C1.32 2.64 2.64 5.28 4 8 C-0.62 8 -5.24 8 -10 8 C-10 6.68 -10 5.36 -10 4 C-3.375 0 -3.375 0 0 0 Z " fill="#2028E7" transform="translate(162,228)"/>
<path d="M0 0 C4.29 0 8.58 0 13 0 C13 1.98 13 3.96 13 6 C6.565 6.495 6.565 6.495 0 7 C0 4.69 0 2.38 0 0 Z " fill="#891043" transform="translate(318,256)"/>
<path d="M0 0 C1.65322266 0.01740234 1.65322266 0.01740234 3.33984375 0.03515625 C4.99693359 0.04869141 4.99693359 0.04869141 6.6875 0.0625 C7.54214844 0.07410156 8.39679688 0.08570313 9.27734375 0.09765625 C9.27734375 2.07765625 9.27734375 4.05765625 9.27734375 6.09765625 C2.84234375 6.59265625 2.84234375 6.59265625 -3.72265625 7.09765625 C-3.72265625 0.13352426 -3.72265625 0.13352426 0 0 Z " fill="#AA0B2C" transform="translate(366.72265625,261.90234375)"/>
<path d="M0 0 C4.29 0 8.58 0 13 0 C13 1.98 13 3.96 13 6 C8.71 6 4.42 6 0 6 C0 4.02 0 2.04 0 0 Z " fill="#891043" transform="translate(280,259)"/>
<path d="M0 0 C3.96 0 7.92 0 12 0 C11.67 1.98 11.34 3.96 11 6 C4.565 6.495 4.565 6.495 -2 7 C-1.34 4.69 -0.68 2.38 0 0 Z " fill="#AA0B2C" transform="translate(123,262)"/>
<path d="M0 0 C1.65322266 0.01740234 1.65322266 0.01740234 3.33984375 0.03515625 C4.99693359 0.04869141 4.99693359 0.04869141 6.6875 0.0625 C7.54214844 0.07410156 8.39679688 0.08570313 9.27734375 0.09765625 C8.94734375 2.07765625 8.61734375 4.05765625 8.27734375 6.09765625 C2.33734375 6.59265625 2.33734375 6.59265625 -3.72265625 7.09765625 C-3.72265625 0.13352426 -3.72265625 0.13352426 0 0 Z " fill="#990D36" transform="translate(240.72265625,261.90234375)"/>
<path d="M0 0 C0 0.33 0 0.66 0 1 C-8.25 1 -16.5 1 -25 1 C-24 -1 -24 -1 -21.625 -2.125 C-13.87354825 -3.99604008 -7.05987494 -3.76526663 0 0 Z " fill="#192AF8" transform="translate(230,231)"/>
<path d="M0 0 C8.25 0 16.5 0 25 0 C24.67 0.99 24.34 1.98 24 3 C16.41 3 8.82 3 1 3 C0.67 2.01 0.34 1.02 0 0 Z " fill="#3D20A4" transform="translate(118,243)"/>
<path d="M0 0 C0 0.66 0 1.32 0 2 C-5.04785727 2.82924383 -9.94272065 3.15815689 -15.0625 3.125 C-15.79331787 3.12306641 -16.52413574 3.12113281 -17.27709961 3.11914062 C-24.21199119 3.06506154 -31.09166953 2.61310064 -38 2 C-38 1.67 -38 1.34 -38 1 C-25.32273538 0.34089443 -12.69603076 -0.1637024 0 0 Z " fill="#E32C40" transform="translate(228,343)"/>
<path d="M0 0 C4.62 0 9.24 0 14 0 C13.67 1.65 13.34 3.3 13 5 C8.38 5 3.76 5 -1 5 C-0.67 3.35 -0.34 1.7 0 0 Z " fill="#4C1C89" transform="translate(194,246)"/>
<path d="M0 0 C4.62 0 9.24 0 14 0 C13.67 1.65 13.34 3.3 13 5 C8.71 5 4.42 5 0 5 C0 3.35 0 1.7 0 0 Z " fill="#631769" transform="translate(344,251)"/>
<path d="M0 0 C3.63 0 7.26 0 11 0 C11 1.98 11 3.96 11 6 C7.37 6.33 3.74 6.66 0 7 C0 4.69 0 2.38 0 0 Z " fill="#AA0B2C" transform="translate(151,262)"/>
<path d="M0 0 C0.99 2.31 1.98 4.62 3 7 C-1.29 7 -5.58 7 -10 7 C-10.33 6.01 -10.66 5.02 -11 4 C-9.73308493 3.32591692 -8.46129251 2.66099503 -7.1875 2 C-6.47980469 1.62875 -5.77210937 1.2575 -5.04296875 0.875 C-3 0 -3 0 0 0 Z " fill="#2028E7" transform="translate(124,229)"/>
<path d="M0 0 C4.29 0 8.58 0 13 0 C13.33 1.65 13.66 3.3 14 5 C9.71 5 5.42 5 1 5 C0.67 3.35 0.34 1.7 0 0 Z " fill="#641668" transform="translate(404,251)"/>
<path d="M0 0 C-0.61277612 2.96175123 -1.25372522 4.38058783 -3 7 C-5.6015625 7.29296875 -5.6015625 7.29296875 -8.625 7.1875 C-10.12933594 7.14689453 -10.12933594 7.14689453 -11.6640625 7.10546875 C-12.82035156 7.05326172 -12.82035156 7.05326172 -14 7 C-13.0078043 4.40420153 -12.46306676 3.23548746 -9.94140625 1.953125 C-9.15636719 1.72109375 -8.37132812 1.4890625 -7.5625 1.25 C-6.78003906 1.00765625 -5.99757812 0.7653125 -5.19140625 0.515625 C-3 0 -3 0 0 0 Z " fill="#2028E7" transform="translate(150,229)"/>
<path d="M0 0 C0.804375 0.495 1.60875 0.99 2.4375 1.5 C2.4375 1.83 2.4375 2.16 2.4375 2.5 C-4.8225 2.5 -12.0825 2.5 -19.5625 2.5 C-18.5625 0.5 -18.5625 0.5 -16.0625 -0.625 C-10.28863912 -2.06846522 -5.53713583 -2.33142561 0 0 Z " fill="#192AF8" transform="translate(106.5625,229.5)"/>
<path d="M0 0 C4.29 0 8.58 0 13 0 C13 1.65 13 3.3 13 5 C8.71 5 4.42 5 0 5 C0 3.35 0 1.7 0 0 Z " fill="#641768" transform="translate(364,251)"/>
<path d="M0 0 C4.29 0 8.58 0 13 0 C13 1.65 13 3.3 13 5 C8.71 5 4.42 5 0 5 C0 3.35 0 1.7 0 0 Z " fill="#3921AB" transform="translate(319,241)"/>
<path d="M0 0 C3.96 0 7.92 0 12 0 C12 1.65 12 3.3 12 5 C7.71 5 3.42 5 -1 5 C-0.67 3.35 -0.34 1.7 0 0 Z " fill="#641668" transform="translate(319,251)"/>
<path d="M0 0 C8.91 0 17.82 0 27 0 C27 1.98 27 3.96 27 6 C24.50638429 4.79618552 22.31856917 3.54571278 20 2 C17.77514259 1.72521627 17.77514259 1.72521627 15.33203125 1.8046875 C14.43935547 1.81113281 13.54667969 1.81757813 12.62695312 1.82421875 C11.69818359 1.84097656 10.76941406 1.85773438 9.8125 1.875 C8.87212891 1.88402344 7.93175781 1.89304688 6.96289062 1.90234375 C4.64167032 1.92590944 2.32096356 1.95880884 0 2 C0 1.34 0 0.68 0 0 Z " fill="#2A25CC" transform="translate(82,237)"/>
<path d="M0 0 C6.93 0 13.86 0 21 0 C21 0.99 21 1.98 21 3 C14.4 3 7.8 3 1 3 C0.67 2.01 0.34 1.02 0 0 Z " fill="#891044" transform="translate(166,259)"/>
<path d="M0 0 C3.3 0 6.6 0 10 0 C10 1.98 10 3.96 10 6 C6.7 6 3.4 6 0 6 C0 4.02 0 2.04 0 0 Z " fill="#891044" transform="translate(152,256)"/>
<path d="M0 0 C5.94 0 11.88 0 18 0 C18 1.32 18 2.64 18 4 C13.71 4 9.42 4 5 4 C5 3.01 5 2.02 5 1 C3.35 1.33 1.7 1.66 0 2 C0 1.34 0 0.68 0 0 Z " fill="#3123BD" transform="translate(234,239)"/>
<path d="M0 0 C7.92 0 15.84 0 24 0 C20.49653804 1.75173098 18.93567449 2.3006446 15.234375 2.6328125 C13.90019531 2.75849609 13.90019531 2.75849609 12.5390625 2.88671875 C11.61867187 2.96535156 10.69828125 3.04398437 9.75 3.125 C8.81414062 3.21136719 7.87828125 3.29773438 6.9140625 3.38671875 C4.60992647 3.59832308 2.30537956 3.80248677 0 4 C0 2.68 0 1.36 0 0 Z " fill="#881044" transform="translate(237,259)"/>
<path d="M0 0 C5.28 0 10.56 0 16 0 C15.34 1.32 14.68 2.64 14 4 C9.71 4 5.42 4 1 4 C0.67 2.68 0.34 1.36 0 0 Z " fill="#661666" transform="translate(122,252)"/>
<path d="M0 0 C5.94 0 11.88 0 18 0 C18 1.32 18 2.64 18 4 C13.71 4 9.42 4 5 4 C5 3.01 5 2.02 5 1 C3.35 1 1.7 1 0 1 C0 0.67 0 0.34 0 0 Z " fill="#3123BD" transform="translate(277,239)"/>
<path d="M0 0 C3.96 0 7.92 0 12 0 C12 0.66 12 1.32 12 2 C17.61 2 23.22 2 29 2 C29 2.33 29 2.66 29 3 C19.43 3.33 9.86 3.66 0 4 C0 2.68 0 1.36 0 0 Z " fill="#AC0B2B" transform="translate(280,265)"/>
<path d="M0 0 C6.27 0 12.54 0 19 0 C18.67 0.99 18.34 1.98 18 3 C12.39 3 6.78 3 1 3 C0.67 2.01 0.34 1.02 0 0 Z " fill="#551A7C" transform="translate(121,249)"/>
<path d="M0 0 C0.33 0 0.66 0 1 0 C1.33776684 1.7491497 1.67003671 3.49936145 2 5.25 C2.185625 6.22453125 2.37125 7.1990625 2.5625 8.203125 C3 11 3 11 3 15 C0.69 15 -1.62 15 -4 15 C-3.79503906 14.25234375 -3.59007812 13.5046875 -3.37890625 12.734375 C-3.10949219 11.74953125 -2.84007812 10.7646875 -2.5625 9.75 C-2.29566406 8.77546875 -2.02882813 7.8009375 -1.75390625 6.796875 C-1.14455416 4.53627347 -0.55761745 2.27377991 0 0 Z " fill="#FFFFFF" transform="translate(402,244)"/>
<path d="M0 0 C3.3 0 6.6 0 10 0 C9.67 1.65 9.34 3.3 9 5 C5.37 5 1.74 5 -2 5 C-1.34 3.35 -0.68 1.7 0 0 Z " fill="#641668" transform="translate(390,251)"/>
<path d="M0 0 C5.61 0 11.22 0 17 0 C17.33 0.99 17.66 1.98 18 3 C12.06 3 6.12 3 0 3 C0 2.01 0 1.02 0 0 Z " fill="#3D1FA4" transform="translate(153,243)"/>
<path d="M0 0 C4.62 0 9.24 0 14 0 C14 1.32 14 2.64 14 4 C9.71 4 5.42 4 1 4 C0.67 2.68 0.34 1.36 0 0 Z " fill="#3123BD" transform="translate(260,239)"/>
<path d="M0 0 C5.94 0 11.88 0 18 0 C18 0.99 18 1.98 18 3 C15.56292912 3.2757817 13.12904951 3.52131492 10.6875 3.75 C9.99720703 3.83121094 9.30691406 3.91242188 8.59570312 3.99609375 C6.57421875 4.171875 6.57421875 4.171875 3 4 C2.01 2.68 1.02 1.36 0 0 Z " fill="#891044" transform="translate(92,259)"/>
<path d="M0 0 C3.3 0 6.6 0 10 0 C9.67 1.65 9.34 3.3 9 5 C5.37 5 1.74 5 -2 5 C-1.34 3.35 -0.68 1.7 0 0 Z " fill="#4C1B89" transform="translate(392,246)"/>
<path d="M0 0 C5.61 0 11.22 0 17 0 C17 0.99 17 1.98 17 3 C12.05 3.33 7.1 3.66 2 4 C1.34 2.68 0.68 1.36 0 0 Z " fill="#AA0B2C" transform="translate(170,265)"/>
<path d="M0 0 C5.61 0 11.22 0 17 0 C17 0.99 17 1.98 17 3 C11.39 3 5.78 3 0 3 C0 2.01 0 1.02 0 0 Z " fill="#2726D3" transform="translate(395,236)"/>
<path d="M0 0 C3.3 0 6.6 0 10 0 C10 1.65 10 3.3 10 5 C6.7 5 3.4 5 0 5 C0 3.35 0 1.7 0 0 Z " fill="#4C1C89" transform="translate(177,246)"/>
<path d="M0 0 C4.95 0 9.9 0 15 0 C15 0.66 15 1.32 15 2 C15.66 2.33 16.32 2.66 17 3 C11.39 3 5.78 3 0 3 C0 2.01 0 1.02 0 0 Z " fill="#990D36" transform="translate(195,262)"/>
<path d="M0 0 C5.28 0 10.56 0 16 0 C16 0.99 16 1.98 16 3 C11.05 3 6.1 3 1 3 C0.67 2.01 0.34 1.02 0 0 Z " fill="#3D20A4" transform="translate(342,243)"/>
<path d="M0 0 C4.95 0 9.9 0 15 0 C14.67 0.99 14.34 1.98 14 3 C9.05 3 4.1 3 -1 3 C-0.67 2.01 -0.34 1.02 0 0 Z " fill="#3D20A4" transform="translate(195,243)"/>
<path d="M0 0 C4.62 0 9.24 0 14 0 C14 0.99 14 1.98 14 3 C9.05 3 4.1 3 -1 3 C-0.67 2.01 -0.34 1.02 0 0 Z " fill="#990D36" transform="translate(96,262)"/>
<path d="M0 0 C4.62 0 9.24 0 14 0 C14.33 0.99 14.66 1.98 15 3 C10.05 3 5.1 3 0 3 C0 2.01 0 1.02 0 0 Z " fill="#781251" transform="translate(193,256)"/>
<path d="M0 0 C2.12438339 -0.08078641 4.2496323 -0.13909141 6.375 -0.1875 C7.55835937 -0.22230469 8.74171875 -0.25710937 9.9609375 -0.29296875 C11.46527344 -0.14794922 11.46527344 -0.14794922 13 0 C13.66 0.99 14.32 1.98 15 3 C10.05 3 5.1 3 0 3 C0 2.01 0 1.02 0 0 Z " fill="#3D1FA4" transform="translate(81,243)"/>
<path d="M0 0 C4.62 0 9.24 0 14 0 C14.33 0.99 14.66 1.98 15 3 C10.38 3 5.76 3 1 3 C0.67 2.01 0.34 1.02 0 0 Z " fill="#2726D3" transform="translate(152,236)"/>
<path d="M0 0 C4.29 0 8.58 0 13 0 C13.33 0.99 13.66 1.98 14 3 C9.38 3 4.76 3 0 3 C0 2.01 0 1.02 0 0 Z " fill="#781251" transform="translate(405,256)"/>
<path d="M0 0 C4.62 0 9.24 0 14 0 C13.67 0.99 13.34 1.98 13 3 C8.71 3 4.42 3 0 3 C0 2.01 0 1.02 0 0 Z " fill="#781352" transform="translate(343,256)"/>
<path d="M0 0 C1.51400391 0.01740234 1.51400391 0.01740234 3.05859375 0.03515625 C4.07050781 0.04417969 5.08242188 0.05320313 6.125 0.0625 C7.29869141 0.07990234 7.29869141 0.07990234 8.49609375 0.09765625 C8.16609375 1.08765625 7.83609375 2.07765625 7.49609375 3.09765625 C1.55609375 3.09765625 -4.38390625 3.09765625 -10.50390625 3.09765625 C-10.50390625 2.76765625 -10.50390625 2.43765625 -10.50390625 2.09765625 C-9.36953125 1.95328125 -8.23515625 1.80890625 -7.06640625 1.66015625 C-3.7864409 1.14226698 -3.04517779 0.11876668 0 0 Z " fill="#791251" transform="translate(390.50390625,255.90234375)"/>
<path d="M0 0 C4.29 0 8.58 0 13 0 C13 0.99 13 1.98 13 3 C8.38 3 3.76 3 -1 3 C-0.67 2.01 -0.34 1.02 0 0 Z " fill="#3D1FA4" transform="translate(239,243)"/>
<path d="M0 0 C2.8203125 -0.29296875 2.8203125 -0.29296875 6.125 -0.1875 C7.76855469 -0.14689453 7.76855469 -0.14689453 9.4453125 -0.10546875 C10.28835938 -0.07066406 11.13140625 -0.03585937 12 0 C12 0.99 12 1.98 12 3 C7.38 3 2.76 3 -2 3 C-1.34 2.01 -0.68 1.02 0 0 Z " fill="#990D36" transform="translate(341,262)"/>
<path d="M0 0 C4.29 0 8.58 0 13 0 C13 0.99 13 1.98 13 3 C8.71 3 4.42 3 0 3 C0 2.01 0 1.02 0 0 Z " fill="#781352" transform="translate(364,256)"/>
<path d="M0 0 C4.29 0 8.58 0 13 0 C13 0.99 13 1.98 13 3 C8.71 3 4.42 3 0 3 C0 2.01 0 1.02 0 0 Z " fill="#781352" transform="translate(318,256)"/>
<path d="M0 0 C4.29 0 8.58 0 13 0 C13 0.99 13 1.98 13 3 C8.71 3 4.42 3 0 3 C0 2.01 0 1.02 0 0 Z " fill="#781352" transform="translate(123,256)"/>
<path d="M0 0 C4.29 0 8.58 0 13 0 C13 0.99 13 1.98 13 3 C8.71 3 4.42 3 0 3 C0 2.01 0 1.02 0 0 Z " fill="#3D20A4" transform="translate(365,243)"/>
<path d="M0 0 C4.29 0 8.58 0 13 0 C12.67 0.99 12.34 1.98 12 3 C7.71 3 3.42 3 -1 3 C-0.67 2.01 -0.34 1.02 0 0 Z " fill="#3D20A4" transform="translate(282,243)"/>
<path d="M0 0 C4.29 0 8.58 0 13 0 C13 0.99 13 1.98 13 3 C8.71 3 4.42 3 0 3 C0 2.01 0 1.02 0 0 Z " fill="#3D20A4" transform="translate(261,243)"/>
<path d="M0 0 C4.29 0 8.58 0 13 0 C13 0.99 13 1.98 13 3 C8.71 3 4.42 3 0 3 C0 2.01 0 1.02 0 0 Z " fill="#2726D3" transform="translate(365,236)"/>
<path d="M0 0 C0.33 1.32 0.66 2.64 1 4 C-5.435 4.495 -5.435 4.495 -12 5 C-11.67 4.01 -11.34 3.02 -11 2 C-7.24092359 0.37676246 -4.07913787 -0.23994929 0 0 Z " fill="#192AF8" transform="translate(409,228)"/>
<path d="M0 0 C3.96 0 7.92 0 12 0 C12 0.99 12 1.98 12 3 C7.71 3 3.42 3 -1 3 C-0.67 2.01 -0.34 1.02 0 0 Z " fill="#990D36" transform="translate(364,262)"/>
<path d="M0 0 C3.96 0 7.92 0 12 0 C12 0.99 12 1.98 12 3 C7.71 3 3.42 3 -1 3 C-0.67 2.01 -0.34 1.02 0 0 Z " fill="#990D36" transform="translate(281,262)"/>
<path d="M0 0 C3.96 0 7.92 0 12 0 C12 0.99 12 1.98 12 3 C7.71 3 3.42 3 -1 3 C-0.67 2.01 -0.34 1.02 0 0 Z " fill="#990D36" transform="translate(123,262)"/>
<path d="M0 0 C4.29 0 8.58 0 13 0 C13 0.99 13 1.98 13 3 C9.04 3 5.08 3 1 3 C0.67 2.01 0.34 1.02 0 0 Z " fill="#501B82" transform="translate(403,248)"/>
<path d="M0 0 C1.95766281 -0.08082094 3.91626728 -0.13910778 5.875 -0.1875 C7.51082031 -0.23970703 7.51082031 -0.23970703 9.1796875 -0.29296875 C10.11039063 -0.19628906 11.04109375 -0.09960938 12 0 C12.66 0.99 13.32 1.98 14 3 C9.71 3 5.42 3 1 3 C0.67 2.01 0.34 1.02 0 0 Z " fill="#2725D3" transform="translate(115,236)"/>
<path d="M0 0 C0 1.65 0 3.3 0 5 C-4.29 4.67 -8.58 4.34 -13 4 C-12.67 3.34 -12.34 2.68 -12 2 C-7.70418473 0.73238238 -4.49055702 0 0 0 Z " fill="#192AF7" transform="translate(379,228)"/>
<path d="M0 0 C3.96 0 7.92 0 12 0 C12 0.99 12 1.98 12 3 C6.06 3.495 6.06 3.495 0 4 C0 2.68 0 1.36 0 0 Z " fill="#AA0B2C" transform="translate(237,265)"/>
<path d="M0 0 C1.98 0 3.96 0 6 0 C6 1.98 6 3.96 6 6 C4.02 6 2.04 6 0 6 C0 4.02 0 2.04 0 0 Z " fill="#DC0C1C" transform="translate(363,363)"/>
<path d="M0 0 C3.63 0 7.26 0 11 0 C11 0.99 11 1.98 11 3 C7.04 3 3.08 3 -1 3 C-0.67 2.01 -0.34 1.02 0 0 Z " fill="#990D36" transform="translate(319,262)"/>
<path d="M0 0 C3.96 0 7.92 0 12 0 C11.67 0.99 11.34 1.98 11 3 C7.04 3 3.08 3 -1 3 C-0.67 2.01 -0.34 1.02 0 0 Z " fill="#2726D3" transform="translate(135,236)"/>
<path d="M0 0 C0.66 0.33 1.32 0.66 2 1 C0.515 2.485 0.515 2.485 -1 4 C4.61 4.33 10.22 4.66 16 5 C16 5.33 16 5.66 16 6 C8.74 6 1.48 6 -6 6 C-4 4 -2 2 0 0 Z " fill="#4360FF" transform="translate(140,206)"/>
<path d="M0 0 C3.63 0 7.26 0 11 0 C11 0.99 11 1.98 11 3 C7.37 3 3.74 3 0 3 C0 2.01 0 1.02 0 0 Z " fill="#990D37" transform="translate(151,262)"/>
<path d="M0 0 C-0.33 1.32 -0.66 2.64 -1 4 C-4.3 4.33 -7.6 4.66 -11 5 C-10.67 4.01 -10.34 3.02 -10 2 C-6.54310037 0.78368346 -3.67168136 0 0 0 Z " fill="#192AF8" transform="translate(188,228)"/>
<path d="M0 0 C3.3 0 6.6 0 10 0 C10 0.99 10 1.98 10 3 C6.7 3 3.4 3 0 3 C0 2.01 0 1.02 0 0 Z " fill="#781352" transform="translate(152,256)"/>
<path d="M0 0 C3.3 0 6.6 0 10 0 C10 0.99 10 1.98 10 3 C6.7 3 3.4 3 0 3 C0 2.01 0 1.02 0 0 Z " fill="#5F186E" transform="translate(177,251)"/>
<path d="M0 0 C3.3 0 6.6 0 10 0 C10 0.99 10 1.98 10 3 C6.7 3 3.4 3 0 3 C0 2.01 0 1.02 0 0 Z " fill="#3D20A4" transform="translate(177,243)"/>
<path d="M0 0 C3.3 0 6.6 0 10 0 C10 0.99 10 1.98 10 3 C6.7 3 3.4 3 0 3 C0 2.01 0 1.02 0 0 Z " fill="#2726D3" transform="translate(177,236)"/>
<path d="M0 0 C1.65 0 3.3 0 5 0 C5 1.98 5 3.96 5 6 C3.35 6 1.7 6 0 6 C0 4.02 0 2.04 0 0 Z " fill="#2A43FF" transform="translate(124,133)"/>
<path d="M0 0 C0.33 1.32 0.66 2.64 1 4 C-2.3 4 -5.6 4 -9 4 C-3.66666667 0 -3.66666667 0 0 0 Z " fill="#192AF8" transform="translate(162,228)"/>
<path d="M0 0 C2.97 0 5.94 0 9 0 C9 1.32 9 2.64 9 4 C5.17902761 3.46930939 2.93828597 2.50298434 0 0 Z " fill="#3023BF" transform="translate(222,239)"/>
<path d="M0 0 C-0.33 1.32 -0.66 2.64 -1 4 C-4.3 3.67 -7.6 3.34 -11 3 C-6.93675441 0.9683772 -4.47525541 0 0 0 Z " fill="#1A2AF6" transform="translate(150,229)"/>
<path d="M0 0 C0.66 0.33 1.32 0.66 2 1 C-0.97 3.97 -3.94 6.94 -7 10 C-7 7 -7 7 -4.625 4.4375 C-3.75875 3.633125 -2.8925 2.82875 -2 2 C-1.34 1.34 -0.68 0.68 0 0 Z " fill="#3F5AFF" transform="translate(212,86)"/>
<path d="M0 0 C0.66 0.66 1.32 1.32 2 2 C-2.29 1.67 -6.58 1.34 -11 1 C-11 0.67 -11 0.34 -11 0 C-7.02274741 -1.05280216 -3.99945368 -0.97764423 0 0 Z " fill="#E62E44" transform="translate(196,429)"/>
<path d="M0 0 C0.33 0.99 0.66 1.98 1 3 C-1.97 3 -4.94 3 -8 3 C-5.36657694 0.36657694 -3.69534435 0 0 0 Z " fill="#192AF6" transform="translate(124,229)"/>
</svg>
